<?xml version="1.0" encoding="UTF-8"?> <svg width="700pt" height="700pt" version="1.1" viewBox="0 0 700 700" xmlns="http://www.w3.org/2000/svg" xmlns:xlink="http://www.w3.org/1999/xlink">  <g>   <path d="m406.65 271.24c8.5977 0.19922 15.809-7.0781 15.809-15.609 0-47.355-38.559-85.98-85.914-85.98s-85.914 38.625-85.914 85.98c0 8.5312 7.0781 15.609 15.609 15.609s15.609-7.0781 15.609-15.609c0-30.293 24.668-54.695 54.695-54.695 8.7305 0 16.996 2.0508 24.34 5.6875l-210.65 211.05c-3.9023 3.9023-3.9023 10.25 0 14.152l41.008 41.008c3.9023 3.9023 10.25 3.9023 14.152 0l201.26-201.59z" fill-rule="evenodd"/>   <path d="m337.27 115.02c-77.648 0-140.61 62.965-140.61 140.61 0 8.5312 7.0781 15.609 15.609 15.609 8.5977 0 15.676-7.0781 15.676-15.609 0-60.32 49.074-109.39 109.33-109.39 60.32 0 109.39 49.074 109.39 109.39 0 28.77-12.965 43.719-28.109 61.047-16.336 18.785-35.121 40.277-35.121 79.566 0 34.391-28.109 62.5-62.5 62.5-8.5312 0-15.609 7.0781-15.609 15.609s7.0781 15.609 15.609 15.609c51.785 0 93.719-42 93.719-93.719 0-27.578 12.234-41.469 27.645-59.062 16.535-19.312 35.582-41.008 35.582-81.551 0-16.668-2.9102-32.605-8.2031-47.422l80.094-79.895c3.9023-4.1016 3.9023-10.449 0-14.352l-41.008-41.008c-3.9023-3.9023-10.25-3.9023-14.418 0l-71.297 71.23c-23.742-18.32-53.441-29.168-85.781-29.168z" fill-rule="evenodd"/>   <use x="70" y="560.992188" xlink:href="#s"/>   <use x="70.242188" y="560.992188" xlink:href="#c"/>   <use x="70.40625" y="560.992188" xlink:href="#b"/>   <use x="70.628906" y="560.992188" xlink:href="#d"/>   <use x="70.851563" y="560.992188" xlink:href="#a"/>   <use x="71.011719" y="560.992188" xlink:href="#b"/>   <use x="71.234375" y="560.992188" xlink:href="#m"/>   <use x="71.585938" y="560.992188" xlink:href="#l"/>   <use x="71.824219" y="560.992188" xlink:href="#g"/>   <use x="72.15625" y="560.992188" xlink:href="#k"/>   <use x="72.390625" y="560.992188" xlink:href="#f"/>   <use x="72.628906" y="560.992188" xlink:href="#j"/>   <use x="72.863281" y="560.992188" xlink:href="#a"/>   <use x="73.019531" y="560.992188" xlink:href="#f"/>   <use x="73.257812" y="560.992188" xlink:href="#c"/>   <use x="73.535156" y="560.992188" xlink:href="#i"/>   <use x="73.730469" y="560.992188" xlink:href="#d"/>   <use x="73.953125" y="560.992188" xlink:href="#h"/>   <use x="74.1875" y="560.992188" xlink:href="#g"/>   <use x="74.40625" y="560.992188" xlink:href="#d"/>   <use x="70" y="561.324219" xlink:href="#r"/>   <use x="70.144531" y="561.324219" xlink:href="#c"/>   <use x="70.308594" y="561.324219" xlink:href="#e"/>   <use x="70.535156" y="561.324219" xlink:href="#q"/>   <use x="70.992188" y="561.324219" xlink:href="#a"/>   <use x="71.152344" y="561.324219" xlink:href="#h"/>   <use x="71.386719" y="561.324219" xlink:href="#b"/>   <use x="71.726563" y="561.324219" xlink:href="#p"/>   <use x="72.003906" y="561.324219" xlink:href="#e"/>   <use x="72.230469" y="561.324219" xlink:href="#f"/>   <use x="72.464844" y="561.324219" xlink:href="#j"/>   <use x="72.816406" y="561.324219" xlink:href="#o"/>   <use x="73.058594" y="561.324219" xlink:href="#c"/>   <use x="73.222656" y="561.324219" xlink:href="#e"/>   <use x="73.449219" y="561.324219" xlink:href="#n"/>   <use x="73.5625" y="561.324219" xlink:href="#b"/>   <use x="73.785156" y="561.324219" xlink:href="#i"/>   <use x="73.984375" y="561.324219" xlink:href="#a"/>  </g> </svg>
