<svg version="1.1" xmlns="http://www.w3.org/2000/svg" xmlns:xlink="http://www.w3.org/1999/xlink" viewBox="162.96 56 374.28 448">  <g>   <path d="m323.68 102.48c0 25.668-20.809 46.48-46.48 46.48-25.668 0-46.48-20.812-46.48-46.48 0-25.672 20.812-46.48 46.48-46.48 25.672 0 46.48 20.809 46.48 46.48"></path>   <path d="m533.12 397.6c-7.2812-10.641-21.84-12.879-32.48-5.6016l-19.039 13.441-54.32-77.84c-3.9219-7.2812-11.762-12.32-20.719-12.32h-97.441v-31.922h78.961c12.879 0 22.961-10.641 22.961-23.52s-10.641-22.961-22.961-22.961h-78.961v-46.48c0-17.922-14-32.48-31.922-32.48s-31.922 14.559-31.922 32.48v147.84c0 12.879 10.078 22.961 22.961 22.961h126.56s66.641 94.078 70 95.762c7.8398 4.4805 17.359 4.4805 25.199-1.1211l38.078-26.32c9.5273-7.2812 12.324-21.84 5.0469-31.918z"></path>   <path d="m301.84 467.04c-56 0-101.92-45.922-101.92-101.92 0-30.801 13.441-58.238 35.281-76.719v-44.801c-42.559 23.52-72.238 69.441-72.238 122.08 0 76.164 62.16 138.32 138.88 138.32 55.441 0 103.04-32.48 125.44-78.961l-26.32-36.961c-10.082 44.801-50.402 78.961-99.121 78.961z"></path>   <use x="70" y="644" xlink:href="#v"></use>   <use x="90.550781" y="644" xlink:href="#d"></use>   <use x="104.359375" y="644" xlink:href="#a"></use>   <use x="123.347656" y="644" xlink:href="#l"></use>   <use x="142.242188" y="644" xlink:href="#c"></use>   <use x="155.628906" y="644" xlink:href="#a"></use>   <use x="174.617188" y="644" xlink:href="#k"></use>   <use x="204.410156" y="644" xlink:href="#j"></use>   <use x="224.453125" y="644" xlink:href="#i"></use>   <use x="252.453125" y="644" xlink:href="#h"></use>   <use x="280.3125" y="644" xlink:href="#g"></use>   <use x="300.25" y="644" xlink:href="#u"></use>   <use x="316.914062" y="644" xlink:href="#f"></use>   <use x="346.089844" y="644" xlink:href="#a"></use>   <use x="365.078125" y="644" xlink:href="#e"></use>   <use x="374.679688" y="644" xlink:href="#e"></use>   <use x="384.273438" y="644" xlink:href="#b"></use>   <use x="403.511719" y="644" xlink:href="#t"></use>   <use x="70" y="672" xlink:href="#s"></use>   <use x="82.183594" y="672" xlink:href="#d"></use>   <use x="95.992188" y="672" xlink:href="#b"></use>   <use x="115.226562" y="672" xlink:href="#f"></use>   <use x="154.152344" y="672" xlink:href="#c"></use>   <use x="167.535156" y="672" xlink:href="#r"></use>   <use x="187.46875" y="672" xlink:href="#a"></use>   <use x="216.207031" y="672" xlink:href="#q"></use>   <use x="239.640625" y="672" xlink:href="#b"></use>   <use x="258.878906" y="672" xlink:href="#g"></use>   <use x="278.8125" y="672" xlink:href="#p"></use>   <use x="308.492188" y="672" xlink:href="#o"></use>   <use x="329.015625" y="672" xlink:href="#d"></use>   <use x="342.820312" y="672" xlink:href="#b"></use>   <use x="362.058594" y="672" xlink:href="#n"></use>   <use x="371.65625" y="672" xlink:href="#a"></use>   <use x="390.648438" y="672" xlink:href="#m"></use>   <use x="407.242188" y="672" xlink:href="#c"></use>  </g> </svg>
