<svg xmlns:xlink="http://www.w3.org/1999/xlink" xmlns="http://www.w3.org/2000/svg" id="Ebene_1" data-name="Ebene 1" width="252.33" height="48" viewBox="0 0 252.33 48"><defs><style> .cls-1 { fill: #fff; } </style></defs><g><path class="cls-1" d="M26,10.28c6.68,0,10.53,3.51,12.14,7.54l-5.61,1.85a6.9,6.9,0,0,0-6.81-4.35c-5.16,0-9.53,4.41-9.53,10.24,0,4.16,3,7.27,7.71,7.27a8.75,8.75,0,0,0,6.43-3.09l4.47,3a14.27,14.27,0,0,1-11.22,5.13c-7.53,0-13.44-4.66-13.45-11.93C10.07,16.5,17.43,10.3,26,10.28Z" transform="translate(0)" fill="#FFFFFF"></path><polygon class="cls-1" points="42.82 10.7 48.63 10.69 43.79 32.36 55.3 32.35 54.2 37.34 36.83 37.37 42.82 10.7" fill="#FFFFFF"></polygon><path class="cls-1" d="M73.13,10.22A15.57,15.57,0,0,0,57.26,25.87c0,7.31,5.88,11.94,13.45,11.93A15.55,15.55,0,0,0,86.54,22.11C86.53,14.84,80.67,10.21,73.13,10.22ZM71,32.76c-4.39,0-7.71-2.74-7.71-7.26,0-5.71,4.16-10.23,9.44-10.24,4.39,0,7.71,2.79,7.71,7.26C80.49,28.24,76.28,32.76,71,32.76Z" transform="translate(0)" fill="#FFFFFF"></path><path class="cls-1" d="M89,28.46a16.08,16.08,0,0,1,.32-2.75l3.38-15.07h5.9L95.23,25.74a7.31,7.31,0,0,0-.29,2.16c0,2.75,1.93,4.87,5.66,4.87,4.22,0,6.22-2.57,7-6.29l3.58-15.87h5.9l-3.58,16c-1.47,6.48-4.86,11.16-13.26,11.17C92.91,37.77,89,34,89,28.46Z" transform="translate(0)" fill="#FFFFFF"></path><path class="cls-1" d="M132.86,10.58l-10.57,0-6,26.66H127c12.82,0,17.68-8.22,17.67-15.21A11.58,11.58,0,0,0,132.86,10.58Zm-4.77,21.67h-4.83L127,15.59h4.75a6.64,6.64,0,0,1,6.89,6.82C138.66,27.72,134.69,32.24,128.09,32.25Z" transform="translate(0)" fill="#FFFFFF"></path><polygon class="cls-1" points="151.23 10.56 170.56 10.53 169.42 15.41 155.95 15.43 154.69 21.22 166.52 21.21 165.42 26.09 153.54 26.1 151.06 37.22 145.25 37.22 151.23 10.56" fill="#FFFFFF"></polygon><polygon class="cls-1" points="174.56 10.53 193.89 10.5 192.75 15.38 179.28 15.4 178.01 21.19 189.85 21.18 188.75 26.05 176.87 26.07 175.49 32.27 188.96 32.25 187.91 37.17 168.57 37.19 174.56 10.53" fill="#FFFFFF"></polygon><path class="cls-1" d="M195.46,28.56a11.89,11.89,0,0,0,9.26,4.11c2.91,0,4.09-1.65,4.09-3.08,0-1.6-2.09-2.44-4.67-3.36-3.81-1.31-8.57-3-8.57-7.82,0-4,3.88-8.31,10.64-8.32,4.34,0,8.44,1.54,10.86,4.3l-3.6,4a10.92,10.92,0,0,0-8-3.39c-2.25,0-3.8,1.33-3.8,2.81S203.76,20,206.34,21c3.81,1.31,8.65,3.1,8.66,7.74s-4,8.91-10.72,8.92c-5.37,0-10.08-2-12.38-4.94Z" transform="translate(0)" fill="#FFFFFF"></path><polygon class="cls-1" points="227.33 15.45 219.34 15.46 220.48 10.47 242.27 10.44 241.17 15.44 233.19 15.45 228.34 37.11 222.48 37.12 227.33 15.45" fill="#FFFFFF"></polygon><path class="cls-1" d="M0,0V48H252.33V0ZM247.29,43H5.05V5.06H247.29Z" transform="translate(0)" fill="#FFFFFF"></path></g></svg>