<?xml version="1.0" encoding="UTF-8"?> <svg width="700pt" height="700pt" version="1.1" viewBox="0 0 700 700" xmlns="http://www.w3.org/2000/svg" xmlns:xlink="http://www.w3.org/1999/xlink">  <g>   <path d="m353.06 126.44h-3.0625c-43.312 0-81.375 8.3125-115.06 21l-97.562-97.562c-4.375-4.375-11.375-4.375-15.312 0-4.375 4.375-4.375 11.375 0 15.312l91.438 91.438c-82.688 38.938-129.06 101.06-136.06 111.12l-4.375 6.125 4.375 6.125c9.1875 13.125 86.188 115.94 222.25 137.38 1.3125 0.4375 3.0625 0.875 4.375 0.875h0.875c14.438 2.1875 29.312 3.0625 45.062 3.0625h3.5c39.375-0.4375 74.812-7.875 106.31-19.25l107.19 107.19c2.1875 2.1875 4.8125 3.0625 7.875 3.0625s5.6875-0.875 7.875-3.0625c4.375-4.375 4.375-11.375 0-15.312l-101.5-100.19c85.75-38.5 134.31-103.69 141.31-113.75l4.375-6.125-4.375-6.125c-10.062-14.438-103.69-139.56-269.5-141.31zm-253.31 147.88c5.25-7 14.438-17.5 27.125-30.188l143.5 145.25c-94.938-26.25-153.12-92.75-170.62-115.06zm253.31 125.56c-15.312 0-30.188-0.875-44.188-2.625l-165.81-168.44c9.1875-7.875 19.688-16.188 31.062-24.062l192.5 194.69c-4.375 0.4375-9.1875 0.4375-13.562 0.4375zm41.562-3.0625-201.69-204.31c11.375-7 24.062-13.562 37.188-19.25l212.19 212.19c-14.875 4.8125-31.062 8.75-47.688 11.375zm5.6875-84-18.375-18.375c4.375-6.5625 7-14 7-22.312 0-21.438-17.5-38.938-38.938-38.938-7.875 0-15.75 2.625-22.312 7l-15.75-15.75c10.938-8.75 24.5-13.125 38.5-13.125 34.562 0 63 28 63 63 0.4375 14-4.375 27.562-13.125 38.5zm-34.562-34.562-21.875-21.875c1.75-0.875 3.9375-1.3125 6.125-1.3125 9.625 0 17.062 7.875 17.062 17.062 0 2.1875-0.4375 4.375-1.3125 6.125zm98.875 98.875-48.562-48.562c12.688-15.312 19.688-34.125 19.688-54.25 0-46.812-38.062-84.875-84.875-84.875-20.125 0-38.938 7-54.25 19.688l-44.188-44.188c29.75-10.062 63-16.625 100.62-16.188 140.44 1.3125 225.31 97.562 247.19 125.56-15.312 19.25-61.25 72.188-135.62 102.81z"/>   <use x="70" y="625.625" xlink:href="#u"/>   <use x="86.054688" y="625.625" xlink:href="#c"/>   <use x="96.839844" y="625.625" xlink:href="#a"/>   <use x="111.679687" y="625.625" xlink:href="#i"/>   <use x="126.4375" y="625.625" xlink:href="#b"/>   <use x="136.894531" y="625.625" xlink:href="#a"/>   <use x="151.730469" y="625.625" xlink:href="#h"/>   <use x="175.007812" y="625.625" xlink:href="#g"/>   <use x="190.664062" y="625.625" xlink:href="#f"/>   <use x="212.539062" y="625.625" xlink:href="#e"/>   <use x="228.292969" y="625.625" xlink:href="#t"/>   <use x="244.96875" y="625.625" xlink:href="#s"/>   <use x="259.890625" y="625.625" xlink:href="#e"/>   <use x="70" y="647.5" xlink:href="#r"/>   <use x="79.515625" y="647.5" xlink:href="#c"/>   <use x="90.304688" y="647.5" xlink:href="#d"/>   <use x="105.332031" y="647.5" xlink:href="#q"/>   <use x="135.742188" y="647.5" xlink:href="#b"/>   <use x="146.199219" y="647.5" xlink:href="#p"/>   <use x="161.773438" y="647.5" xlink:href="#a"/>   <use x="184.222656" y="647.5" xlink:href="#o"/>   <use x="202.53125" y="647.5" xlink:href="#d"/>   <use x="217.558594" y="647.5" xlink:href="#n"/>   <use x="233.132812" y="647.5" xlink:href="#m"/>   <use x="256.320312" y="647.5" xlink:href="#l"/>   <use x="272.355469" y="647.5" xlink:href="#c"/>   <use x="283.140625" y="647.5" xlink:href="#d"/>   <use x="298.171875" y="647.5" xlink:href="#k"/>   <use x="305.667969" y="647.5" xlink:href="#a"/>   <use x="320.503906" y="647.5" xlink:href="#j"/>   <use x="333.472656" y="647.5" xlink:href="#b"/>  </g> </svg>
